<svg width="36" height="37" viewBox="0 0 36 37" fill="none" xmlns="http://www.w3.org/2000/svg">
<g clip-path="url(#clip0_3_1024)">
<path d="M23.9888 15.7707C23.845 15.2294 23.4215 14.8031 22.8837 14.6584C21.9089 14.3955 18 14.3955 18 14.3955C18 14.3955 14.0912 14.3955 13.1163 14.6584C12.5785 14.8031 12.155 15.2294 12.0112 15.7707C11.75 16.7518 11.75 18.7989 11.75 18.7989C11.75 18.7989 11.75 20.846 12.0112 21.8271C12.155 22.3684 12.5785 22.777 13.1163 22.9217C14.0912 23.1846 18 23.1846 18 23.1846C18 23.1846 21.9088 23.1846 22.8837 22.9217C23.4215 22.777 23.845 22.3684 23.9888 21.8271C24.25 20.846 24.25 18.7989 24.25 18.7989C24.25 18.7989 24.25 16.7518 23.9888 15.7707ZM16.7216 20.6575V16.9403L19.9886 18.799L16.7216 20.6575Z" fill="white"/>
</g>
<rect x="1" y="1.79004" width="34" height="34" rx="17" stroke="white" stroke-width="2"/>
<defs>
<clipPath id="clip0_3_1024">
<rect width="13" height="9" fill="white" transform="translate(11.5 14.29)"/>
</clipPath>
</defs>
</svg>
