<svg width="36" height="37" viewBox="0 0 36 37" fill="none" xmlns="http://www.w3.org/2000/svg">
<g clip-path="url(#clip0_3_1028)">
<path d="M14.3761 20.439C14.3761 21.1617 13.7857 21.7521 13.0631 21.7521C12.3404 21.7521 11.75 21.1617 11.75 20.439C11.75 19.7164 12.3404 19.126 13.0631 19.126H14.3761V20.439ZM15.038 20.439C15.038 19.7164 15.6283 19.126 16.351 19.126C17.0737 19.126 17.6641 19.7164 17.6641 20.439V23.7269C17.6641 24.4496 17.0737 25.04 16.351 25.04C15.6283 25.04 15.038 24.4496 15.038 23.7269V20.439ZM16.351 15.1662C15.6283 15.1662 15.038 14.5757 15.038 13.8531C15.038 13.1304 15.6283 12.54 16.351 12.54C17.0737 12.54 17.6641 13.1304 17.6641 13.8531V15.1662H16.351ZM16.351 15.828C17.0737 15.828 17.6641 16.4184 17.6641 17.141C17.6641 17.8637 17.0737 18.4541 16.351 18.4541H13.0631C12.3404 18.4541 11.75 17.8637 11.75 17.141C11.75 16.4184 12.3404 15.828 13.0631 15.828H16.351ZM21.6239 17.141C21.6239 16.4184 22.2143 15.828 22.9369 15.828C23.6596 15.828 24.25 16.4184 24.25 17.141C24.25 17.8637 23.6596 18.4541 22.9369 18.4541H21.6239V17.141ZM20.9621 17.141C20.9621 17.8637 20.3716 18.4541 19.649 18.4541C18.9263 18.4541 18.3359 17.8637 18.3359 17.141V13.8531C18.3359 13.1304 18.9263 12.54 19.649 12.54C20.3716 12.54 20.9621 13.1304 20.9621 13.8531V17.141ZM19.649 22.4139C20.3716 22.4139 20.9621 23.0043 20.9621 23.7269C20.9621 24.4496 20.3716 25.04 19.649 25.04C18.9263 25.04 18.3359 24.4496 18.3359 23.7269V22.4139H19.649ZM19.649 21.7521C18.9263 21.7521 18.3359 21.1617 18.3359 20.439C18.3359 19.7164 18.9263 19.126 19.649 19.126H22.9369C23.6596 19.126 24.25 19.7164 24.25 20.439C24.25 21.1617 23.6596 21.7521 22.9369 21.7521H19.649Z" fill="white"/>
</g>
<rect x="1" y="1.79004" width="34" height="34" rx="17" stroke="white" stroke-width="2"/>
<defs>
<clipPath id="clip0_3_1028">
<rect width="13" height="13" fill="white" transform="translate(11.5 12.29)"/>
</clipPath>
</defs>
</svg>
