<svg width="36" height="37" viewBox="0 0 36 37" fill="none" xmlns="http://www.w3.org/2000/svg">
<g clip-path="url(#clip0_28_124)">
<path d="M14.548 25.0397H11.9565V16.6943H14.548V25.0397ZM13.2508 15.5559C12.4221 15.5559 11.75 14.8696 11.75 14.0409C11.75 13.6428 11.9081 13.2611 12.1896 12.9796C12.471 12.6982 12.8528 12.54 13.2508 12.54C13.6489 12.54 14.0306 12.6982 14.3121 12.9796C14.5935 13.2611 14.7517 13.6428 14.7517 14.0409C14.7517 14.8696 14.0792 15.5559 13.2508 15.5559ZM24.2472 25.0397H21.6613V20.9773C21.6613 20.0091 21.6417 18.7674 20.3139 18.7674C18.9665 18.7674 18.76 19.8193 18.76 20.9075V25.0397H16.1713V16.6943H18.6568V17.8327H18.6931C19.0391 17.177 19.8842 16.4851 21.1451 16.4851C23.7679 16.4851 24.25 18.2122 24.25 20.4555V25.0397H24.2472Z" fill="white"/>
</g>
<rect x="1" y="1.79004" width="34" height="34" rx="17" stroke="white" stroke-width="2"/>
<defs>
<clipPath id="clip0_28_124">
<rect width="15" height="15" fill="white" transform="translate(10.5 11.29)"/>
</clipPath>
</defs>
</svg>
