<svg width="36" height="37" viewBox="0 0 36 37" fill="none" xmlns="http://www.w3.org/2000/svg">
<g clip-path="url(#clip0_3_1020)">
<path d="M22.9651 16.244C22.9731 16.355 22.9731 16.4661 22.9731 16.5771C22.9731 19.9639 20.3953 23.8661 15.684 23.8661C14.2326 23.8661 12.8842 23.4457 11.75 22.7161C11.9562 22.7399 12.1545 22.7478 12.3687 22.7478C13.5663 22.7478 14.6688 22.3433 15.5492 21.6533C14.4229 21.6295 13.4791 20.8919 13.1539 19.8766C13.3125 19.9004 13.4711 19.9163 13.6377 19.9163C13.8677 19.9163 14.0977 19.8845 14.3119 19.829C13.138 19.5911 12.2576 18.56 12.2576 17.3148V17.283C12.5986 17.4734 12.9952 17.5924 13.4156 17.6082C12.7255 17.1482 12.2735 16.363 12.2735 15.4746C12.2735 14.9988 12.4003 14.5625 12.6224 14.1818C13.8835 15.7364 15.7792 16.7516 17.9048 16.8627C17.8652 16.6723 17.8414 16.474 17.8414 16.2757C17.8414 14.8639 18.9835 13.7139 20.4032 13.7139C21.1409 13.7139 21.8071 14.0232 22.2751 14.5229C22.854 14.4118 23.4093 14.1977 23.901 13.9042C23.7106 14.4991 23.3061 14.9988 22.7748 15.316C23.2903 15.2605 23.79 15.1177 24.25 14.9195C23.9011 15.4271 23.4648 15.8791 22.9651 16.244Z" fill="white"/>
</g>
<rect x="1" y="1.79004" width="34" height="34" rx="17" stroke="white" stroke-width="2"/>
<defs>
<clipPath id="clip0_3_1020">
<rect width="13" height="11" fill="white" transform="translate(11.5 13.29)"/>
</clipPath>
</defs>
</svg>
